<svg version="1.1" id="Layer_1" xmlns="http://www.w3.org/2000/svg" xmlns:xlink="http://www.w3.org/1999/xlink" x="0px" y="0px"
	 width="100%" viewBox="0 0 630 630" enable-background="new 0 0 630 630" xml:space="preserve">
<path fill="#FFFFFF" opacity="1.000000" stroke="none" 
	d="
M1.000002,379.000000 
	C1.000000,253.038849 1.000000,127.077682 1.000000,1.058264 
	C210.896408,1.058264 420.792847,1.058264 631.000000,1.058264 
	C631.000000,127.357239 631.000000,253.714737 630.644226,380.867645 
	C629.859436,379.980591 629.273743,378.319763 629.038025,376.610626 
	C628.680481,374.018158 629.093811,371.207886 628.257324,368.812134 
	C624.544922,358.178864 620.649109,347.602753 616.498474,337.133270 
	C615.131042,333.684357 613.042053,330.440918 610.849060,327.418335 
	C607.300171,322.526733 603.631348,317.678558 599.574097,313.210754 
	C594.863037,308.022888 590.056274,302.788269 584.591125,298.457153 
	C579.314514,294.275452 573.345093,290.829651 567.324890,287.756195 
	C557.928284,282.959045 548.585815,277.550537 538.572876,274.593750 
	C526.060486,270.898926 512.913818,269.219757 499.248413,270.108337 
	C496.066803,270.037720 493.307770,270.037720 491.468384,270.037720 
	C489.552338,267.920410 488.193268,266.418640 486.898438,264.524689 
	C486.644012,263.053650 486.267303,261.988098 486.016876,260.893585 
	C484.934326,256.162354 484.621429,251.095596 482.682495,246.751740 
	C478.167633,236.637039 473.104828,226.744522 467.806152,217.011230 
	C465.024597,211.901779 461.618317,207.032791 457.879272,202.570419 
	C453.593567,197.455688 448.626343,192.912048 443.963196,187.694244 
	C444.378418,181.872360 441.154022,181.599686 436.888519,182.245850 
	C434.729248,180.513611 432.871094,178.910522 430.921509,177.427643 
	C406.543793,158.885712 379.280731,148.413513 348.433258,148.003723 
	C346.433746,147.977158 344.419952,148.153900 342.435883,147.976944 
	C326.530579,146.558365 310.788147,148.488556 295.870880,153.418869 
	C283.310730,157.570145 271.095978,163.465164 259.682129,170.203827 
	C246.345261,178.077850 234.403412,188.091599 224.841858,200.597244 
	C220.729004,205.976517 215.594086,210.709808 212.235764,216.497955 
	C207.500320,224.659531 203.874039,233.479095 199.999557,242.118683 
	C198.443985,245.587387 196.451416,246.093750 193.561508,244.025955 
	C183.620895,236.913116 171.847794,235.474030 160.408905,235.334732 
	C148.950424,235.195221 137.600769,236.591705 126.707428,242.615555 
	C116.135223,248.461807 107.698212,256.306793 100.904228,265.407928 
	C96.433014,271.397552 92.517044,278.941467 91.981865,287.213135 
	C91.474586,295.053497 90.212677,302.918182 90.578583,310.711334 
	C90.763496,314.649628 91.204018,317.067719 86.647224,317.757111 
	C88.506859,317.932404 90.366486,318.107697 92.046860,318.266083 
	C83.138275,319.844116 74.017822,320.877625 65.244835,323.215210 
	C59.245480,324.813721 53.730534,328.230255 47.953003,330.475342 
	C46.658501,329.513214 45.410015,328.909698 44.161530,328.306213 
	C43.462208,330.255859 42.762886,332.205536 41.918221,334.459900 
	C34.804024,341.386749 27.926941,348.109009 20.840385,354.602661 
	C13.814842,361.040436 10.235787,369.444580 6.458504,378.004944 
	C4.390282,378.340454 2.695143,378.670227 1.000002,379.000000 
z"/>
<path fill="#FFFFFF" opacity="1.000000" stroke="none" 
	d="
M631.000000,417.000000 
	C631.000000,488.303619 631.000000,559.607239 631.000000,630.955444 
	C421.117157,630.955444 211.234299,630.955444 1.000000,630.955444 
	C1.000000,564.978394 1.000000,498.956177 1.364160,432.191650 
	C4.068125,431.966309 6.407671,432.934479 8.747775,432.935822 
	C145.810272,433.014862 282.872803,433.014862 419.935333,433.012604 
	C422.095215,433.012573 424.255127,432.890320 426.845520,432.895264 
	C433.805969,432.920227 440.335968,432.875000 447.338623,432.906433 
	C463.605774,432.988525 479.400299,433.016876 495.194733,432.994354 
	C522.789551,432.955017 550.384338,432.884369 578.443726,432.902008 
	C590.369629,432.985535 601.830933,433.014648 613.292114,432.989685 
	C616.770020,432.982117 621.019592,434.004517 623.494812,432.384369 
	C625.696289,430.943451 625.746094,426.415222 627.095093,423.406372 
	C628.110046,421.142395 629.678101,419.126373 631.000000,417.000000 
M577.935181,434.979767 
	C592.704895,434.979767 607.474609,434.979767 622.244263,434.979767 
	C622.244019,434.708557 622.243713,434.437317 622.243469,434.166107 
	C607.165405,434.166107 592.087402,434.166107 576.080872,434.019928 
	C533.109619,434.019928 490.138336,434.019928 447.167084,434.019928 
	C450.800079,435.000946 454.439972,435.005249 458.079834,435.000244 
	C497.722992,434.945648 537.366150,434.889557 577.935181,434.979767 
M162.918121,434.972046 
	C250.671021,434.972046 338.423920,434.972046 426.176819,434.972046 
	C426.177551,434.648193 426.178284,434.324371 426.179016,434.000519 
	C424.880432,434.000519 423.581818,434.000519 422.283234,434.000519 
	C336.847137,434.000519 251.411041,433.999786 165.974945,434.007446 
	C164.646103,434.007568 163.317276,434.110931 161.060226,434.032684 
	C108.973434,434.032684 56.886650,434.032684 4.799862,434.032684 
	C4.798431,434.355133 4.797000,434.677551 4.795569,435.000000 
	C6.396950,435.000000 7.998332,435.000000 9.599712,435.000000 
	C32.584396,435.000000 55.569103,435.021210 78.553757,434.994507 
	C106.365318,434.962158 134.176834,434.889282 162.918121,434.972046 
z"/>
<path fill="#1FA594" opacity="1.000000" stroke="none" 
	d="
M426.415009,432.825104 
	C424.255127,432.890320 422.095215,433.012573 419.935333,433.012604 
	C282.872803,433.014862 145.810272,433.014862 8.747775,432.935822 
	C6.407671,432.934479 4.068125,431.966309 1.364160,431.724670 
	C1.000000,418.645782 1.000000,405.291534 1.323496,391.770172 
	C2.704204,388.401855 3.761417,385.200653 4.945565,381.694214 
	C5.658865,380.259033 6.245230,379.129120 6.831591,377.999176 
	C10.235787,369.444580 13.814842,361.040436 20.840385,354.602661 
	C27.926941,348.109009 34.804024,341.386749 42.282536,334.399048 
	C44.527802,332.966949 46.263412,331.900482 47.999023,330.833984 
	C53.730534,328.230255 59.245480,324.813721 65.244835,323.215210 
	C74.017822,320.877625 83.138275,319.844116 92.046860,318.266083 
	C90.366486,318.107697 88.506859,317.932404 86.647224,317.757111 
	C91.204018,317.067719 90.763496,314.649628 90.578583,310.711334 
	C90.212677,302.918182 91.474586,295.053497 91.981865,287.213135 
	C92.517044,278.941467 96.433014,271.397552 100.904228,265.407928 
	C107.698212,256.306793 116.135223,248.461807 126.707428,242.615555 
	C137.600769,236.591705 148.950424,235.195221 160.408905,235.334732 
	C171.847794,235.474030 183.620895,236.913116 193.561508,244.025955 
	C196.451416,246.093750 198.443985,245.587387 199.999557,242.118683 
	C203.874039,233.479095 207.500320,224.659531 212.235764,216.497955 
	C215.594086,210.709808 220.729004,205.976517 224.841858,200.597244 
	C234.403412,188.091599 246.345261,178.077850 259.682129,170.203827 
	C271.095978,163.465164 283.310730,157.570145 295.870880,153.418869 
	C310.788147,148.488556 326.530579,146.558365 342.435883,147.976944 
	C344.419952,148.153900 346.433746,147.977158 348.433258,148.003723 
	C379.280731,148.413513 406.543793,158.885712 430.921509,177.427643 
	C432.871094,178.910522 434.729248,180.513611 437.094269,182.534485 
	C439.690826,184.712189 441.822998,186.416245 443.955200,188.120300 
	C448.626343,192.912048 453.593567,197.455688 457.879272,202.570419 
	C461.618317,207.032791 465.024597,211.901779 467.806152,217.011230 
	C473.104828,226.744522 478.167633,236.637039 482.682495,246.751740 
	C484.621429,251.095596 484.934326,256.162354 486.016876,260.893585 
	C486.267303,261.988098 486.644012,263.053650 486.569916,264.670166 
	C481.415100,277.804260 476.789673,290.454498 471.862976,302.986267 
	C460.909668,330.847565 431.189270,352.605591 403.438629,353.192291 
	C390.110260,353.474060 376.779663,353.666840 363.449249,353.832153 
	C301.961700,354.594696 240.473938,355.338501 178.986008,356.068787 
	C175.065338,356.115356 171.136444,356.606812 170.910828,361.430969 
	C170.662598,366.738220 175.005890,366.069183 178.461365,366.114288 
	C235.282776,366.855896 292.104401,367.581726 348.925842,368.320404 
	C366.088928,368.543549 383.253601,368.700745 400.414032,369.056366 
	C424.034790,369.545868 438.130188,385.739716 435.078735,409.068268 
	C434.371277,414.476807 432.873901,419.843414 431.149017,425.032898 
	C430.214600,427.844208 428.033661,430.241211 426.415009,432.825104 
z"/>
<path fill="#1FA594" opacity="1.000000" stroke="none" 
	d="
M631.000000,416.666687 
	C629.678101,419.126373 628.110046,421.142395 627.095093,423.406372 
	C625.746094,426.415222 625.696289,430.943451 623.494812,432.384369 
	C621.019592,434.004517 616.770020,432.982117 613.292114,432.989685 
	C601.830933,433.014648 590.369629,432.985535 578.269287,432.563477 
	C575.919434,431.769440 574.208923,431.059052 572.497681,431.057098 
	C530.295227,431.008453 488.092743,431.034912 445.641479,430.811981 
	C446.862549,426.204315 447.869019,421.606232 449.876617,417.497314 
	C464.073639,388.439941 486.673431,371.251892 519.566223,369.044128 
	C534.529114,368.039795 549.504822,367.226105 564.476440,366.354523 
	C568.130249,366.141846 571.461609,365.049133 571.529053,360.888824 
	C571.605469,356.174896 567.665894,356.298309 564.282532,356.089355 
	C548.483459,355.113770 532.671753,354.299316 516.890991,353.082886 
	C495.604370,351.442078 482.240448,334.883423 485.771637,313.805298 
	C487.469086,303.672668 490.615936,293.749329 493.599243,283.880188 
	C495.033661,279.134918 497.611115,274.735168 499.670959,270.178986 
	C512.913818,269.219757 526.060486,270.898926 538.572876,274.593750 
	C548.585815,277.550537 557.928284,282.959045 567.324890,287.756195 
	C573.345093,290.829651 579.314514,294.275452 584.591125,298.457153 
	C590.056274,302.788269 594.863037,308.022888 599.574097,313.210754 
	C603.631348,317.678558 607.300171,322.526733 610.849060,327.418335 
	C613.042053,330.440918 615.131042,333.684357 616.498474,337.133270 
	C620.649109,347.602753 624.544922,358.178864 628.257324,368.812134 
	C629.093811,371.207886 628.680481,374.018158 629.038025,376.610626 
	C629.273743,378.319763 629.859436,379.980591 630.644226,381.331543 
	C631.000000,390.687561 631.000000,400.375122 630.801941,410.783447 
	C630.735962,412.669464 630.867981,413.834717 631.000000,415.000000 
	C631.000000,415.444458 631.000000,415.888885 631.000000,416.666687 
z"/>
<path fill="#FFFFFF" opacity="1.000000" stroke="none" 
	d="
M4.818633,381.999481 
	C3.761417,385.200653 2.704204,388.401855 1.323496,391.301514 
	C1.000000,388.299988 1.000000,385.599976 1.381868,382.449982 
	C2.782037,381.999847 3.800337,381.999664 4.818633,381.999481 
z"/>
<path fill="#FFFFFF" opacity="1.000000" stroke="none" 
	d="
M4.945568,381.694214 
	C3.800337,381.999664 2.782037,381.999847 1.381868,382.000000 
	C1.000000,381.250000 1.000000,380.500000 1.000002,379.375000 
	C2.695143,378.670227 4.390282,378.340454 6.458508,378.004944 
	C6.245230,379.129120 5.658865,380.259033 4.945568,381.694214 
z"/>
<path fill="#FFA44A" opacity="1.000000" stroke="none" 
	d="
M631.000000,414.600006 
	C630.867981,413.834717 630.735962,412.669464 630.801941,411.252075 
	C631.000000,412.066681 631.000000,413.133331 631.000000,414.600006 
z"/>
<path fill="#FFFDFC" opacity="1.000000" stroke="none" 
	d="
M499.248413,270.108337 
	C497.611115,274.735168 495.033661,279.134918 493.599243,283.880188 
	C490.615936,293.749329 487.469086,303.672668 485.771637,313.805298 
	C482.240448,334.883423 495.604370,351.442078 516.890991,353.082886 
	C532.671753,354.299316 548.483459,355.113770 564.282532,356.089355 
	C567.665894,356.298309 571.605469,356.174896 571.529053,360.888824 
	C571.461609,365.049133 568.130249,366.141846 564.476440,366.354523 
	C549.504822,367.226105 534.529114,368.039795 519.566223,369.044128 
	C486.673431,371.251892 464.073639,388.439941 449.876617,417.497314 
	C447.869019,421.606232 446.862549,426.204315 445.718567,431.056763 
	C446.318268,431.968323 446.592102,432.399048 446.865936,432.829773 
	C440.335968,432.875000 433.805969,432.920227 426.845520,432.895264 
	C428.033661,430.241211 430.214600,427.844208 431.149017,425.032898 
	C432.873901,419.843414 434.371277,414.476807 435.078735,409.068268 
	C438.130188,385.739716 424.034790,369.545868 400.414032,369.056366 
	C383.253601,368.700745 366.088928,368.543549 348.925842,368.320404 
	C292.104401,367.581726 235.282776,366.855896 178.461365,366.114288 
	C175.005890,366.069183 170.662598,366.738220 170.910828,361.430969 
	C171.136444,356.606812 175.065338,356.115356 178.986008,356.068787 
	C240.473938,355.338501 301.961700,354.594696 363.449249,353.832153 
	C376.779663,353.666840 390.110260,353.474060 403.438629,353.192291 
	C431.189270,352.605591 460.909668,330.847565 471.862976,302.986267 
	C476.789673,290.454498 481.415100,277.804260 486.505707,265.062317 
	C488.193268,266.418640 489.552338,267.920410 491.468384,270.037720 
	C493.307770,270.037720 496.066803,270.037720 499.248413,270.108337 
z"/>
<path fill="#FFFFFF" opacity="1.000000" stroke="none" 
	d="
M47.953003,330.475342 
	C46.263412,331.900482 44.527802,332.966949 42.427879,334.094299 
	C42.762886,332.205536 43.462208,330.255859 44.161530,328.306213 
	C45.410015,328.909698 46.658501,329.513214 47.953003,330.475342 
z"/>
<path fill="#FFFFFF" opacity="1.000000" stroke="none" 
	d="
M443.963196,187.694244 
	C441.822998,186.416245 439.690826,184.712189 437.352875,182.719513 
	C441.154022,181.599686 444.378418,181.872360 443.963196,187.694244 
z"/>
<path fill="#1FA594" opacity="1.000000" stroke="none" 
	d="
M161.988434,434.166107 
	C163.317276,434.110931 164.646103,434.007568 165.974945,434.007446 
	C251.411041,433.999786 336.847137,434.000519 422.283234,434.000519 
	C423.581818,434.000519 424.880432,434.000519 426.179016,434.000519 
	C426.178284,434.324371 426.177551,434.648193 426.176819,434.972046 
	C338.423920,434.972046 250.671021,434.972046 162.453094,434.736023 
	C161.988083,434.500000 161.988434,434.166107 161.988434,434.166107 
z"/>
<path fill="#1FA594" opacity="1.000000" stroke="none" 
	d="
M447.338623,432.906433 
	C446.592102,432.399048 446.318268,431.968323 445.967346,431.292786 
	C488.092743,431.034912 530.295227,431.008453 572.497681,431.057098 
	C574.208923,431.059052 575.919434,431.769440 577.804688,432.488281 
	C550.384338,432.884369 522.789551,432.955017 495.194733,432.994354 
	C479.400299,433.016876 463.605774,432.988525 447.338623,432.906433 
z"/>
<path fill="#1FA594" opacity="1.000000" stroke="none" 
	d="
M161.524323,434.099396 
	C161.988434,434.166107 161.988083,434.500000 161.988220,434.666931 
	C134.176834,434.889282 106.365318,434.962158 78.553757,434.994507 
	C55.569103,435.021210 32.584396,435.000000 9.599712,435.000000 
	C7.998332,435.000000 6.396950,435.000000 4.795569,435.000000 
	C4.797000,434.677551 4.798431,434.355133 4.799862,434.032684 
	C56.886650,434.032684 108.973434,434.032684 161.524323,434.099396 
z"/>
<path fill="#1FA594" opacity="1.000000" stroke="none" 
	d="
M577.009277,434.833862 
	C537.366150,434.889557 497.722992,434.945648 458.079834,435.000244 
	C454.439972,435.005249 450.800079,435.000946 447.167084,434.019928 
	C490.138336,434.019928 533.109619,434.019928 576.544739,434.259949 
	C577.008606,434.500000 577.009277,434.833893 577.009277,434.833862 
z"/>
<path fill="#1FA594" opacity="1.000000" stroke="none" 
	d="
M577.472229,434.906830 
	C577.009277,434.833893 577.008606,434.500000 577.008972,434.333069 
	C592.087402,434.166107 607.165405,434.166107 622.243469,434.166107 
	C622.243713,434.437317 622.244019,434.708557 622.244263,434.979767 
	C607.474609,434.979767 592.704895,434.979767 577.472229,434.906830 
z"/>
</svg>