<svg version="1.1" id="Layer_1" xmlns="http://www.w3.org/2000/svg" xmlns:xlink="http://www.w3.org/1999/xlink" x="0px" y="0px"
	 width="100%" viewBox="0 0 400 400" enable-background="new 0 0 400 400" xml:space="preserve">
<path fill="#82025A" stroke="#82025A" opacity="1.000000" 
	d="
M310.468628,401.000000 
	C316.092682,391.303955 315.361572,380.587738 314.183777,369.992889 
	C312.885254,358.312164 309.137665,347.315002 303.295746,337.045715 
	C300.876862,332.793610 301.359650,328.376526 304.828674,325.070831 
	C313.666687,316.648895 316.270630,305.650696 317.432709,294.345245 
	C318.748840,281.540894 317.916840,268.748596 313.571503,256.409180 
	C311.949799,251.804031 309.575439,247.681442 306.578094,243.818054 
	C302.342468,238.358597 302.178284,232.433624 306.592346,227.879349 
	C323.997101,209.921753 323.471283,180.798416 310.967590,160.599609 
	C302.091827,146.261475 289.775574,136.895355 272.689240,134.603668 
	C269.696503,134.202271 266.766693,134.407196 263.771606,134.971405 
	C256.214508,136.394989 251.701202,134.316589 248.887589,128.156754 
	C242.339111,113.820213 230.620850,105.205307 216.254150,100.662567 
	C191.188171,92.736732 164.680527,104.821129 152.991287,128.536087 
	C150.326263,133.942841 146.625061,136.163223 139.860596,135.198044 
	C120.604088,132.450455 106.307434,140.708710 94.835999,155.150024 
	C79.618607,174.307114 77.720200,201.905518 90.120483,221.075745 
	C91.558121,223.298264 93.288116,225.350388 95.028931,227.354355 
	C99.055077,231.989075 100.007881,237.615326 96.370316,242.448914 
	C83.080368,260.108612 82.719658,280.090302 85.583023,300.604034 
	C86.839867,309.608276 90.001350,317.884338 96.827660,324.534546 
	C100.957375,328.557739 101.086327,332.829071 98.136116,338.274750 
	C90.173355,352.972961 86.485855,368.606995 87.298462,385.332489 
	C87.553833,390.588684 89.113235,395.441895 90.994797,400.627869 
	C83.645744,401.000000 76.291496,401.000000 68.468620,401.000000 
	C66.431686,397.971802 65.957970,394.664825 65.747475,391.341675 
	C64.564659,372.667877 66.260384,354.400909 74.035149,337.115173 
	C75.063347,334.829163 74.842476,333.301056 73.600121,331.216187 
	C66.020538,318.496277 62.559063,304.732025 62.452282,289.855804 
	C62.341560,274.430206 62.861351,259.236908 69.157959,244.827606 
	C69.557861,243.912460 69.783150,242.876495 70.353973,242.088104 
	C73.162979,238.208420 72.511604,234.967407 70.056961,230.800919 
	C51.644508,199.547836 58.753742,156.059525 86.565048,131.497849 
	C91.572571,127.075417 92.065475,123.113754 91.565918,117.020584 
	C89.739502,94.743797 88.870644,72.420845 98.098038,51.161980 
	C100.176109,46.374336 102.788353,41.962410 106.232521,38.070805 
	C116.747650,26.189648 132.656631,26.091991 143.352951,37.842960 
	C150.608307,45.813705 154.575958,55.490402 157.218674,65.728973 
	C158.952423,72.445992 160.166824,79.297050 161.794830,86.937637 
	C187.870316,72.411057 213.791656,72.340248 240.162766,87.006027 
	C241.761917,79.625999 243.074020,72.873413 244.709518,66.200081 
	C246.738251,57.922203 249.768539,50.073551 254.652100,42.942154 
	C267.721191,23.857634 288.827240,24.446199 300.417175,44.535168 
	C307.712158,57.179626 311.116028,71.071686 311.253784,85.588463 
	C311.373535,98.208832 312.404633,110.917770 309.519318,123.420570 
	C309.095612,125.256493 309.903229,126.521553 311.340210,127.704262 
	C329.492981,142.644760 339.435913,162.120163 341.940186,185.249023 
	C343.744690,201.915085 340.184418,217.728043 331.325348,232.077118 
	C329.401855,235.192596 329.360382,237.512329 330.919098,240.758682 
	C336.906433,253.228790 339.903259,266.379486 339.539703,280.329926 
	C339.254028,291.293335 339.880920,302.258667 336.401276,312.952545 
	C334.591034,318.515961 332.924530,324.140503 329.714996,329.013184 
	C327.327972,332.637146 327.185486,335.761383 328.931335,339.677307 
	C336.314941,356.238892 337.174835,373.792938 336.228821,391.558197 
	C336.069519,394.550262 335.547394,397.511414 334.183350,400.654449 
	C326.312408,401.000000 318.624847,401.000000 310.468628,401.000000 
M272.187073,56.738247 
	C263.992249,71.825806 262.147186,88.241798 262.481171,105.002602 
	C262.564484,109.182678 264.602203,112.332764 269.954071,112.309715 
	C274.724518,112.289162 279.603516,112.708977 284.234711,114.229439 
	C287.150513,115.186722 288.274841,114.351692 288.850586,111.191971 
	C290.329712,103.073952 290.117279,94.895683 289.485138,86.829559 
	C288.669556,76.421768 287.176605,65.968155 281.789154,56.667694 
	C278.085938,50.274788 276.879669,50.276054 272.187073,56.738247 
M127.269585,112.659607 
	C129.089279,112.457451 130.905914,112.120796 132.729263,112.079491 
	C137.364273,111.974518 139.406418,109.021378 139.549454,105.056618 
	C140.075745,90.469696 138.162643,76.180138 132.807938,62.531273 
	C131.146545,58.296467 129.287338,53.902603 124.888878,51.654716 
	C113.762009,57.547337 108.965294,99.449821 114.281441,114.510094 
	C118.274956,113.920418 122.329987,113.321655 127.269585,112.659607 
z"/>
<path fill="#82025A" opacity="1.000000" stroke="#82025A"
	d="
M219.459869,187.267593 
	C236.492355,192.294662 249.627213,201.659134 256.253571,218.115952 
	C264.576630,238.786652 254.575851,260.057343 233.233200,270.442200 
	C219.661819,277.045685 178.823318,276.854675 164.672287,268.438873 
	C140.823486,254.255692 135.413422,223.712875 154.787201,203.825333 
	C171.365814,186.807068 191.750549,181.947891 214.695511,186.147812 
	C216.163834,186.416565 217.607666,186.819168 219.459869,187.267593 
M182.878754,203.418945 
	C176.328918,205.755569 170.753525,209.529251 165.981552,214.591125 
	C154.567093,226.699066 156.078857,242.981918 169.463959,252.708069 
	C177.877380,258.821625 187.351425,260.105835 197.415955,259.791016 
	C207.844162,259.464813 218.297745,260.644867 228.171646,255.467773 
	C245.545441,246.358307 249.020020,227.377960 234.973389,213.724884 
	C220.263824,199.427460 202.705017,197.114334 182.878754,203.418945 
z"/>
<path fill="#82025A" opacity="1.000000" stroke="#82025A" 
	d="
M143.268250,197.537643 
	C143.281357,202.104492 143.819733,206.252289 141.386429,210.090836 
	C137.791763,215.761475 132.439972,218.830261 126.920349,217.929153 
	C120.977150,216.958908 116.793709,213.795517 115.025894,207.919983 
	C113.319817,202.249603 115.958458,194.188629 120.493294,190.710434 
	C129.027771,184.164536 139.000961,186.970062 143.268250,197.537643 
z"/>
<path fill="#82025A" opacity="1.000000" stroke="#82025A"
	d="
M271.256592,187.298203 
	C280.779388,188.223419 286.078522,192.950439 287.264435,201.191422 
	C288.550934,210.131790 283.429291,216.876587 274.487549,218.017487 
	C267.378906,218.924500 259.557983,212.214828 258.695862,204.469604 
	C257.589172,194.527756 261.164581,189.494873 271.256592,187.298203 
z"/>
<path fill="#82025A" opacity="1.000000" stroke="#82025A"
	d="
M192.346252,218.727112 
	C197.559372,219.253647 202.256378,220.433044 207.198715,218.797211 
	C209.894516,217.904922 212.429947,219.417740 213.615372,222.278198 
	C214.895218,225.366547 213.771149,228.178375 211.336273,229.789383 
	C207.574783,232.278137 206.975403,235.409149 207.291199,239.552750 
	C207.685776,244.730057 204.945908,246.807587 199.392212,246.300827 
	C195.187592,245.917145 192.739883,242.991165 194.032959,238.624771 
	C195.240234,234.548111 193.566071,232.616913 190.693604,230.341553 
	C185.627197,226.328278 186.268127,221.654770 192.346252,218.727112 
z"/>
</svg>