<svg width="18" height="18" viewBox="0 0 18 18" fill="none" xmlns="http://www.w3.org/2000/svg">
<g clip-path="url(#clip0_200_90)">
<path d="M8.04409 -0.00381429C8.06318 -0.00385674 8.08227 -0.00393811 8.10136 -0.00402451C8.33917 -0.00487041 8.57598 0.00982778 8.81067 0.0499753C8.81727 0.0510769 8.82386 0.0521784 8.83066 0.0533133C9.56196 0.17607 10.264 0.479271 10.8459 0.940417C10.8533 0.946229 10.8607 0.952041 10.8683 0.95803C10.9622 1.03229 11.0526 1.1103 11.1402 1.19182C11.1535 1.20413 11.167 1.21626 11.1806 1.22836C11.2561 1.2963 11.3255 1.36929 11.3943 1.44394C11.4037 1.45395 11.4134 1.46365 11.4234 1.47303C11.4348 1.48534 11.4348 1.48534 11.4348 1.50292C11.4427 1.5012 11.4427 1.5012 11.4509 1.49944C11.5609 1.47597 11.671 1.4553 11.7825 1.43975C11.792 1.43839 11.8015 1.43703 11.8113 1.43563C11.9973 1.41062 12.1825 1.40292 12.3701 1.40344C12.3881 1.40349 12.4061 1.40352 12.4242 1.40354C12.6025 1.40387 12.7784 1.40814 12.9553 1.4326C12.9667 1.43411 12.9781 1.43562 12.9898 1.43718C13.737 1.53703 14.4557 1.82194 15.3107 2.46093C15.316 2.46527 15.3212 2.46962 15.3266 2.4741C15.4393 2.56817 15.5456 2.66888 15.6497 2.77239C15.6581 2.7808 15.6581 2.7808 15.6668 2.78937C15.7002 2.82291 15.7319 2.8575 15.7628 2.89333C15.7795 2.91253 15.7967 2.93116 15.8139 2.94982C15.8586 2.99935 15.8993 3.05165 15.9401 3.10439C15.9518 3.11942 15.9637 3.13431 15.9756 3.14915C16.4284 3.71259 16.7304 4.39898 16.9367 5.63378C16.9375 5.64362 16.9375 5.64362 16.9383 5.65366C16.9782 6.17649 16.9084 6.70107 16.7699 7.20486C16.7669 7.21574 16.7639 7.22662 16.7609 7.23783C16.7552 7.2576 16.7493 7.27727 16.7428 7.2968C16.7262 7.34434 16.7262 7.34434 16.7368 7.39149C16.7435 7.39823 16.7502 7.40497 16.7571 7.41191C16.7646 7.41991 16.772 7.42791 16.7797 7.43615C16.7838 7.44031 16.7879 7.44447 16.7922 7.44876C16.8145 7.47181 16.8351 7.49629 16.856 7.52068C16.8604 7.52585 16.8649 7.53102 16.8695 7.53634C16.9214 7.59706 16.969 7.66083 17.0158 7.72557C17.0207 7.7323 17.0256 7.73904 17.0306 7.74597C17.4429 8.31841 17.7137 8.97663 17.8623 9.9179C17.863 9.92451 17.8637 9.93113 17.8645 9.93794C17.881 10.0934 17.8878 10.2483 17.8876 10.4046C17.8876 10.4124 17.8876 10.4202 17.8876 10.4283C17.8873 10.5681 17.8823 10.7065 17.8683 10.8457C17.8673 10.8566 17.8662 10.8675 17.8651 10.8787C17.784 11.6576 17.5007 12.4148 16.8137 13.3506C16.8071 13.3584 16.8071 13.3584 16.8005 13.3664C16.6751 13.5166 16.5404 13.6673 16.3906 13.7937C16.3711 13.8103 16.3524 13.8276 16.3336 13.845C16.2898 13.8845 16.2439 13.9207 16.1973 13.9568C16.1757 13.9736 16.1543 13.9906 16.1331 14.008C16.0554 14.0715 15.9751 14.1292 15.8914 14.1844C15.8851 14.1886 15.8788 14.1927 15.8724 14.197C15.4442 14.4803 14.8056 14.8623 14.2736 14.8623C14.2723 14.8678 14.2709 14.8733 14.2696 14.8789C14.2511 14.9506 14.2258 15.0192 14.1989 15.0881C14.1955 15.097 14.1955 15.097 14.1919 15.1061C14.1474 15.2203 14.0983 15.3319 14.0451 15.4424C14.0411 15.4508 14.0371 15.4593 14.0329 15.468C13.877 15.7951 13.6756 16.1076 13.437 16.3806C13.4145 16.4064 13.393 16.4329 13.3716 16.4597C13.3388 16.5002 13.3032 16.5368 13.2659 16.5732C13.2477 16.5914 13.2307 16.6099 13.214 16.6294C13.1651 16.6864 13.1114 16.7382 13.0545 16.7871C13.0338 16.8052 13.0137 16.8238 12.9936 16.8425C12.9387 16.8938 12.8824 16.9425 12.8234 16.9892C12.8142 16.9967 12.8049 17.0041 12.7956 17.0116C12.1595 17.52 11.3983 17.8452 10.5932 17.9626C10.5872 17.9635 10.5812 17.9644 10.575 17.9653C10.3705 17.9953 10.1658 18.0033 9.95927 18.0028C9.94032 18.0027 9.92137 18.0027 9.90242 18.0027C9.72057 18.0024 9.54097 17.9988 9.36054 17.9736C9.34941 17.9722 9.33827 17.9707 9.32681 17.9692C8.73397 17.8902 8.16296 17.6959 7.64667 17.3935C7.63886 17.389 7.63105 17.3844 7.623 17.3798C7.42722 17.2655 7.23971 17.1358 7.06659 16.9892C7.05743 16.9816 7.04826 16.974 7.03909 16.9663C6.97789 16.9152 6.91855 16.8625 6.86017 16.8082C6.84683 16.7958 6.83334 16.7837 6.81981 16.7716C6.7443 16.7037 6.67491 16.6307 6.60607 16.556C6.59669 16.546 6.58698 16.5363 6.57697 16.5269C6.56562 16.5146 6.56562 16.5146 6.56562 16.4971C6.56061 16.4982 6.5556 16.4994 6.55044 16.5005C6.44183 16.5251 6.33322 16.5454 6.22284 16.5602C6.21287 16.5616 6.2029 16.5629 6.19263 16.5643C6.15879 16.5687 6.12493 16.5726 6.09101 16.5762C6.0837 16.5769 6.0764 16.5777 6.06887 16.5785C5.91838 16.594 5.7687 16.5969 5.6175 16.5965C5.60558 16.5965 5.59367 16.5964 5.58176 16.5964C5.40161 16.596 5.22383 16.5919 5.04511 16.5674C5.03881 16.5665 5.03252 16.5657 5.02603 16.5648C4.30555 16.4665 3.63163 16.2078 2.78632 15.6182C2.7813 15.6142 2.77628 15.6102 2.77111 15.6061C2.74357 15.5842 2.71652 15.5618 2.68964 15.5391C2.68516 15.5353 2.68068 15.5316 2.67606 15.5277C2.56272 15.4328 2.45545 15.3318 2.35071 15.2276C2.34507 15.222 2.33942 15.2164 2.3336 15.2106C2.30018 15.1771 2.26848 15.1425 2.23754 15.1066C2.22091 15.0874 2.2037 15.0688 2.18647 15.0502C2.14178 15.0006 2.10108 14.9483 2.06029 14.8956C2.04857 14.8806 2.03669 14.8657 2.02473 14.8508C1.57988 14.2972 1.28443 13.628 1.05487 12.1992C1.05469 12.1884 1.05451 12.1776 1.05433 12.1665C1.0469 11.673 1.09628 11.1538 1.2643 10.6857C1.27537 10.6501 1.27537 10.6501 1.26581 10.6172C1.24884 10.596 1.24884 10.596 1.22736 10.5743C1.17957 10.5235 1.13669 10.4696 1.09422 10.4143C1.08081 10.3969 1.06729 10.3796 1.05374 10.3623C0.90601 10.1725 0.77546 9.97038 0.661517 9.7586C0.654046 9.74472 0.646534 9.73085 0.638986 9.71701C0.287774 9.07209 0.111808 8.32882 0.112797 7.59593C0.112802 7.58855 0.112808 7.58116 0.112813 7.57355C0.114426 6.73806 0.351082 5.92532 0.782414 5.2119C0.786516 5.2051 0.790619 5.19831 0.794846 5.1913C0.879433 5.05187 0.973224 4.91937 1.07245 4.79003C1.07667 4.78451 1.08089 4.779 1.08524 4.77332C1.13696 4.70596 1.19073 4.64166 1.24823 4.57909C1.25816 4.56777 1.26805 4.55642 1.2779 4.54503C1.34667 4.46646 1.41787 4.39101 1.49158 4.31707C1.49857 4.31003 1.50557 4.303 1.51277 4.29575C1.55502 4.25361 1.59847 4.21363 1.64374 4.17479C1.65391 4.16581 1.66406 4.15682 1.67419 4.14781C1.74875 4.08201 1.82571 4.0204 1.90539 3.96094C1.92526 3.94607 1.94502 3.93107 1.96478 3.91606C2.41153 3.57901 3.13983 3.13768 3.72675 3.13768C3.72819 3.13194 3.72964 3.1262 3.73113 3.12028C3.74774 3.05662 3.7688 2.99571 3.79267 2.93444C3.79651 2.92454 3.80035 2.91464 3.80431 2.90445C3.97424 2.47143 4.20176 2.0691 4.4914 1.70507C4.49548 1.6999 4.49957 1.69473 4.50377 1.68941C4.54374 1.63901 4.58568 1.59066 4.62907 1.54319C4.64582 1.52467 4.66227 1.50597 4.67865 1.48712C4.71067 1.45044 4.74368 1.41478 4.77704 1.37932C4.78254 1.37345 4.78803 1.36757 4.79369 1.36152C4.84528 1.30657 4.89754 1.25335 4.95468 1.20416C4.97423 1.18701 4.99335 1.16945 5.01241 1.15176C5.06555 1.10249 5.12022 1.05586 5.17694 1.01073C5.18145 1.00711 5.18595 1.00349 5.19059 0.999761C5.82281 0.491541 6.58701 0.1535 7.39052 0.037856C7.40304 0.0360539 7.41556 0.034223 7.42807 0.0323629C7.63281 0.00203932 7.83746 -0.0034209 8.04409 -0.00381429ZM5.58124 2.25878C5.56002 2.28166 5.5398 2.3052 5.51972 2.32909C5.51294 2.33684 5.50617 2.34459 5.49919 2.35257C5.34321 2.53192 5.21322 2.72817 5.09784 2.93553C5.09186 2.94627 5.09186 2.94627 5.08576 2.95722C4.80033 3.47406 4.68353 4.05229 4.6834 4.63832C4.68337 4.65609 4.68333 4.67386 4.68329 4.69163C4.68318 4.73997 4.68313 4.78831 4.68309 4.83665C4.68304 4.88896 4.68294 4.94127 4.68284 4.99359C4.68263 5.11954 4.6825 5.2455 4.68239 5.37146C4.68235 5.40704 4.68232 5.44262 4.68228 5.4782C4.68206 5.69937 4.68187 5.92055 4.68176 6.14172C4.68173 6.1928 4.68171 6.24388 4.68168 6.29496C4.68168 6.3013 4.68167 6.30765 4.68167 6.31418C4.68156 6.52036 4.68129 6.72654 4.68092 6.93272C4.68055 7.14495 4.68032 7.35718 4.68027 7.56941C4.68026 7.59935 4.68025 7.6293 4.68025 7.65924C4.68024 7.66513 4.68024 7.67103 4.68024 7.6771C4.68021 7.77197 4.68003 7.86684 4.6798 7.96171C4.67957 8.05693 4.6795 8.15214 4.6796 8.24736C4.67964 8.29895 4.67962 8.35054 4.6794 8.40214C4.6792 8.44932 4.67921 8.4965 4.67938 8.54368C4.6794 8.56079 4.67935 8.57789 4.67922 8.595C4.67905 8.61818 4.67915 8.64135 4.67933 8.66453C4.67921 8.67123 4.6791 8.67794 4.67898 8.68484C4.67955 8.71969 4.68336 8.73462 4.70579 8.7619C4.72683 8.77876 4.74711 8.79315 4.77048 8.80653C4.77859 8.81121 4.7867 8.8159 4.79505 8.82072C4.80816 8.82816 4.80816 8.82816 4.82154 8.83574C4.83076 8.84105 4.83999 8.84636 4.8495 8.85183C4.87439 8.86612 4.89931 8.88035 4.92426 8.89455C4.94981 8.9091 4.97533 8.9237 5.00085 8.93829C5.03192 8.95605 5.063 8.9738 5.09409 8.99152C5.16864 9.03403 5.24283 9.07713 5.31688 9.12049C5.38424 9.15988 5.45193 9.19867 5.51972 9.23729C5.60467 9.2857 5.68931 9.33462 5.77368 9.38403C5.85339 9.43063 5.93353 9.47645 6.01376 9.52213C6.02344 9.52764 6.03311 9.53315 6.04308 9.53883C6.05245 9.54417 6.06183 9.5495 6.07149 9.555C6.10943 9.57682 6.14703 9.5992 6.18457 9.62168C6.20393 9.63419 6.20393 9.63419 6.22284 9.6328C6.22286 9.61676 6.22286 9.61676 6.22287 9.60039C6.22325 9.12886 6.22366 8.65733 6.22424 8.1858C6.22425 8.17866 6.22426 8.17151 6.22427 8.16416C6.22446 8.00893 6.22465 7.8537 6.22486 7.69847C6.22496 7.62234 6.22505 7.54621 6.22515 7.47008C6.22516 7.46251 6.22517 7.45493 6.22518 7.44713C6.22549 7.20172 6.22572 6.95631 6.2259 6.7109C6.22609 6.45864 6.22637 6.20639 6.22675 5.95413C6.22681 5.91848 6.22686 5.88282 6.22691 5.84717C6.22692 5.84015 6.22693 5.83313 6.22695 5.8259C6.22711 5.71309 6.22718 5.60027 6.22722 5.48746C6.22727 5.37395 6.2274 5.26045 6.22764 5.14695C6.22778 5.07957 6.22784 5.01219 6.2278 4.94481C6.22778 4.8944 6.22789 4.844 6.22806 4.79359C6.2281 4.77327 6.22811 4.75294 6.22806 4.73262C6.2276 4.51084 6.25377 4.32604 6.41607 4.16147C6.48574 4.10407 6.56711 4.06127 6.64527 4.01659C6.66035 4.00793 6.67544 3.99926 6.69052 3.9906C6.70604 3.98169 6.72156 3.97279 6.73708 3.96389C6.78545 3.93614 6.83373 3.90824 6.88202 3.88036C6.90107 3.86937 6.92011 3.85839 6.93915 3.8474C6.94858 3.84196 6.958 3.83652 6.96772 3.83092C7.05341 3.78148 7.05341 3.78148 7.08198 3.765C7.10101 3.75402 7.12004 3.74304 7.13906 3.73206C7.18688 3.70447 7.23471 3.67689 7.28254 3.64934C7.3744 3.59641 7.46617 3.54333 7.55768 3.48979C7.63916 3.44214 7.72101 3.39518 7.80301 3.34845C7.88321 3.30274 7.96309 3.25651 8.04277 3.2099C8.13526 3.15581 8.2281 3.10232 8.32095 3.04884C8.36866 3.02134 8.41636 2.99382 8.46405 2.9663C8.4831 2.95531 8.50214 2.94432 8.52118 2.93334C8.53061 2.9279 8.54004 2.92246 8.54975 2.91686C9.32099 2.47191 9.32099 2.47191 9.34956 2.45543C9.36858 2.44445 9.38761 2.43347 9.40664 2.42249C9.45446 2.3949 9.50228 2.36732 9.55012 2.33977C9.65092 2.28169 9.75158 2.22338 9.85202 2.16468C9.92983 2.11923 10.0079 2.07419 10.086 2.02925C10.0996 2.02141 10.0996 2.0214 10.1135 2.0134C10.1255 2.0065 10.1255 2.0065 10.1377 1.99946C10.16 1.98649 10.1822 1.97328 10.2043 1.95995C9.69695 1.4271 8.81641 1.19472 8.10765 1.17659C7.25328 1.16193 6.43011 1.48552 5.58124 2.25878ZM11.9094 2.61913C11.8993 2.62059 11.8892 2.62205 11.8788 2.62356C11.4067 2.69449 10.9771 2.87278 10.5685 3.11331C10.5089 3.14833 10.4489 3.18259 10.3889 3.21678C10.3124 3.26032 10.2362 3.30418 10.1603 3.34862C10.0792 3.39611 9.99775 3.4429 9.91609 3.48943C9.84493 3.52998 9.77399 3.5709 9.70331 3.61229C9.62221 3.65978 9.54071 3.70657 9.45905 3.7531C9.38789 3.79365 9.31696 3.83458 9.24628 3.87596C9.16517 3.92346 9.08368 3.97024 9.00202 4.01677C8.93086 4.05733 8.85993 4.09825 8.78925 4.13964C8.70814 4.18713 8.62665 4.23391 8.54499 4.28044C8.47383 4.321 8.4029 4.36192 8.33222 4.40331C8.25111 4.4508 8.16962 4.49758 8.08796 4.54411C8.0168 4.58467 7.94587 4.62559 7.87519 4.66698C7.79929 4.71142 7.72308 4.75528 7.64667 4.79882C7.56138 4.84742 7.47634 4.89645 7.39164 4.94609C7.34447 4.97372 7.29717 5.00112 7.24969 5.02822C7.23911 5.03428 7.22853 5.04033 7.21795 5.04638C7.19766 5.05799 7.17734 5.06955 7.157 5.08108C7.14787 5.08631 7.13873 5.09154 7.12932 5.09692C7.12122 5.10152 7.11313 5.10613 7.10479 5.11087C7.07816 5.12737 7.07816 5.12737 7.0578 5.15038C7.05527 5.17435 7.05436 5.19631 7.05463 5.22028C7.05461 5.22748 7.05459 5.23468 7.05456 5.2421C7.05452 5.26631 7.05467 5.29052 7.05481 5.31473C7.05482 5.33206 7.05481 5.34938 7.0548 5.3667C7.05479 5.4138 7.05495 5.4609 7.05513 5.50801C7.05529 5.5572 7.05531 5.6064 7.05534 5.65559C7.05542 5.74879 7.05564 5.84198 7.0559 5.93518C7.0562 6.04126 7.05634 6.14734 7.05648 6.25343C7.05675 6.47168 7.05722 6.68994 7.0578 6.90819C7.10025 6.89473 7.13636 6.8769 7.17426 6.85381C7.18758 6.84583 7.20092 6.83787 7.21426 6.82991C7.22154 6.82556 7.22882 6.82121 7.23632 6.81673C7.2804 6.7906 7.32485 6.76511 7.36927 6.73955C7.38384 6.73115 7.38384 6.73115 7.39871 6.72258C7.41868 6.71108 7.43866 6.69957 7.45863 6.68807C7.50668 6.6604 7.5547 6.63268 7.60273 6.60497C7.62177 6.59398 7.64081 6.58299 7.65985 6.57201C7.66928 6.56657 7.67871 6.56113 7.68842 6.55553C8.00263 6.37426 8.00263 6.37426 8.0312 6.35777C8.05023 6.3468 8.06925 6.33582 8.08828 6.32484C8.1361 6.29725 8.18392 6.26967 8.23176 6.24211C8.32398 6.18898 8.41611 6.13571 8.508 6.08202C8.60949 6.02272 8.71128 5.96395 8.81314 5.90528C8.86085 5.87779 8.90854 5.85026 8.95624 5.82274C8.97528 5.81176 8.99433 5.80077 9.01337 5.78978C9.0228 5.78434 9.03222 5.77891 9.04193 5.7733C10.7272 4.80101 10.7272 4.80101 10.7558 4.78453C10.7748 4.77355 10.7939 4.76257 10.8129 4.75159C10.8607 4.724 10.9085 4.69642 10.9564 4.66887C11.0414 4.61989 11.1263 4.57084 11.211 4.52131C11.2456 4.50109 11.2802 4.48094 11.3149 4.4608C11.3362 4.44834 11.3575 4.43579 11.3788 4.42322C11.5345 4.33224 11.7019 4.29473 11.8803 4.33684C11.9569 4.3606 12.0248 4.39849 12.0939 4.43846C12.1017 4.44293 12.1095 4.4474 12.1175 4.45201C12.1614 4.47737 12.2052 4.50295 12.2489 4.52866C12.3051 4.5617 12.3615 4.59433 12.418 4.62688C12.4323 4.63508 12.4323 4.63508 12.4468 4.64345C12.466 4.65454 12.4853 4.66564 12.5045 4.67673C12.5523 4.70422 12.6 4.73174 12.6476 4.75926C12.6667 4.77025 12.6857 4.78124 12.7048 4.79222C12.819 4.85814 12.9333 4.92406 13.0475 4.98998C13.057 4.99542 13.0664 5.00086 13.0761 5.00646C13.0951 5.01744 13.1142 5.02842 13.1332 5.0394C13.181 5.06699 13.2288 5.09457 13.2767 5.12212C13.3685 5.17505 13.4603 5.22813 13.5518 5.28166C13.6281 5.32627 13.7047 5.3703 13.7814 5.41405C13.8669 5.46274 13.952 5.51191 14.0369 5.56156C14.1294 5.61565 14.2222 5.66914 14.3151 5.72262C14.3628 5.75012 14.4105 5.77764 14.4582 5.80516C14.4772 5.81615 14.4963 5.82714 14.5153 5.83812C14.7058 5.94799 14.8962 6.05785 15.0866 6.16771C15.096 6.17315 15.1055 6.17859 15.1152 6.18419C15.1342 6.19517 15.1532 6.20615 15.1723 6.21713C15.2201 6.24472 15.2679 6.2723 15.3157 6.29986C15.3349 6.31092 15.3542 6.32199 15.3734 6.33306C15.3827 6.33842 15.392 6.34379 15.4016 6.34931C15.4503 6.37741 15.4989 6.40564 15.5475 6.43406C15.5572 6.43979 15.567 6.44551 15.5771 6.45141C15.5958 6.4624 15.6146 6.47341 15.6333 6.48443C15.6416 6.4893 15.6499 6.49417 15.6585 6.49919C15.6658 6.50351 15.6732 6.50782 15.6807 6.51227C15.6956 6.52218 15.6956 6.52218 15.7062 6.52147C15.7111 6.48493 15.716 6.44838 15.7208 6.41182C15.7224 6.39945 15.7241 6.38707 15.7257 6.3747C15.7438 6.23942 15.7523 6.10533 15.7524 5.96886C15.7524 5.96163 15.7524 5.9544 15.7524 5.94695C15.7513 5.09748 15.4192 4.28513 14.7285 3.53868C14.6866 3.49701 14.6441 3.45689 14.5988 3.41893C14.591 3.41207 14.5831 3.4052 14.5751 3.39813C14.2655 3.12851 13.9018 2.92736 13.5178 2.78612C13.5097 2.78314 13.5017 2.78017 13.4935 2.7771C13.3051 2.70809 13.108 2.66126 12.9102 2.62902C12.8948 2.6265 12.8948 2.6265 12.8791 2.62393C12.7145 2.5988 12.5503 2.58939 12.384 2.59001C12.3705 2.59004 12.3705 2.59004 12.3568 2.59006C12.2062 2.59051 12.0586 2.59723 11.9094 2.61913ZM2.42188 5.08607C2.40376 5.10263 2.38539 5.11862 2.36664 5.13445C2.28406 5.20625 2.20607 5.28616 2.13593 5.3701C2.12907 5.37793 2.12222 5.38576 2.11516 5.39383C1.7116 5.85705 1.44522 6.44292 1.34656 7.04772C1.34485 7.05814 1.34314 7.06855 1.34137 7.07929C1.31538 7.24761 1.3064 7.41533 1.30701 7.5855C1.30703 7.59488 1.30704 7.60427 1.30706 7.61394C1.30749 7.76414 1.31343 7.91087 1.33612 8.05956C1.33759 8.06949 1.33905 8.07941 1.34055 8.08964C1.41051 8.55277 1.57802 8.99984 1.82831 9.3955C1.8332 9.40323 1.8332 9.40323 1.83819 9.41112C1.9338 9.56105 2.04312 9.70608 2.16491 9.8357C2.18302 9.85524 2.20056 9.87497 2.21795 9.89513C2.25047 9.93246 2.28485 9.9676 2.31995 10.0025C2.32579 10.0084 2.33163 10.0142 2.33765 10.0203C2.37735 10.0599 2.41842 10.0974 2.46112 10.1338C2.46673 10.1386 2.47233 10.1433 2.47811 10.1483C2.69011 10.3279 2.92126 10.4725 3.16272 10.6089C3.21367 10.6378 3.26425 10.6672 3.31476 10.6968C3.41587 10.756 3.5173 10.8145 3.6188 10.873C3.66651 10.9005 3.71421 10.928 3.76191 10.9556C3.78095 10.9665 3.79999 10.9775 3.81903 10.9885C3.93329 11.0544 4.04755 11.1203 4.16181 11.1863C4.17124 11.1917 4.18066 11.1971 4.19038 11.2027C4.20941 11.2137 4.22843 11.2247 4.24746 11.2357C4.29528 11.2633 4.3431 11.2909 4.39094 11.3184C4.4828 11.3713 4.57457 11.4244 4.66608 11.478C4.74235 11.5226 4.81893 11.5666 4.89569 11.6103C4.98113 11.659 5.06628 11.7082 5.15117 11.7579C5.24366 11.8119 5.3365 11.8654 5.42935 11.9189C5.47706 11.9464 5.52476 11.9739 5.57245 12.0015C5.5915 12.0124 5.61054 12.0234 5.62958 12.0344C5.80097 12.1333 5.80097 12.1333 5.97235 12.2322C5.98178 12.2376 5.99121 12.243 6.00092 12.2486C6.01995 12.2596 6.03898 12.2706 6.05801 12.2816C6.10583 12.3092 6.15365 12.3368 6.20149 12.3643C6.29789 12.4199 6.39422 12.4755 6.49036 12.5315C6.49932 12.5368 6.50828 12.542 6.5175 12.5473C6.52576 12.5522 6.53401 12.557 6.54251 12.5619C6.54976 12.5662 6.557 12.5704 6.56446 12.5747C6.57977 12.5839 6.59472 12.5936 6.60956 12.6035C6.67078 12.6037 6.71514 12.572 6.76612 12.5409C6.78505 12.5296 6.80399 12.5183 6.82294 12.507C6.83269 12.5011 6.84244 12.4953 6.85249 12.4893C6.89976 12.4611 6.94747 12.4337 6.99518 12.4063C7.01439 12.3952 7.03359 12.3842 7.05279 12.3731C7.06233 12.3676 7.07186 12.3621 7.08169 12.3565C7.12941 12.329 7.1771 12.3014 7.2248 12.2739C7.24384 12.2629 7.26288 12.2519 7.28192 12.241C7.29606 12.2328 7.29606 12.2328 7.31049 12.2245C7.6247 12.0432 7.6247 12.0432 7.65329 12.0267C7.67225 12.0158 7.69122 12.0048 7.71018 11.9939C7.75897 11.9657 7.80778 11.9376 7.85661 11.9095C7.91267 11.8773 7.96865 11.8449 8.0246 11.8125C8.03211 11.8082 8.03962 11.8038 8.04736 11.7993C8.06655 11.7882 8.08569 11.777 8.1048 11.7658C8.11021 11.7627 8.11562 11.7596 8.1212 11.7563C8.13325 11.7492 8.14491 11.7414 8.15644 11.7334C8.15644 11.7276 8.15644 11.7218 8.15644 11.7158C8.15071 11.7125 8.14499 11.7092 8.13909 11.7058C7.74497 11.4784 7.35085 11.251 6.95673 11.0237C6.9473 11.0182 6.93787 11.0128 6.92816 11.0072C6.90913 10.9962 6.8901 10.9852 6.87107 10.9743C6.82326 10.9467 6.77543 10.9191 6.7276 10.8915C6.63574 10.8386 6.54397 10.7855 6.45246 10.732C6.37619 10.6874 6.29961 10.6433 6.22284 10.5996C6.13739 10.5509 6.05224 10.5017 5.96733 10.4521C5.81896 10.3653 5.66988 10.2798 5.52058 10.1946C5.44072 10.1491 5.36118 10.103 5.28182 10.0566C5.18933 10.0025 5.09649 9.949 5.00364 9.89552C4.95593 9.86802 4.90824 9.8405 4.86054 9.81298C4.8415 9.80199 4.82245 9.791 4.80341 9.78002C4.61298 9.67015 4.42255 9.56029 4.23212 9.45043C4.22268 9.44498 4.21325 9.43954 4.20352 9.43393C4.18459 9.423 4.16565 9.41208 4.14672 9.40114C4.10268 9.37572 4.05863 9.35033 4.01452 9.32503C3.99906 9.31617 3.98361 9.3073 3.96816 9.29842C3.9489 9.28736 3.92962 9.27631 3.91034 9.26529C3.74083 9.16785 3.59111 9.06524 3.53339 8.86815C3.51947 8.8152 3.51325 8.7659 3.51351 8.71124C3.51348 8.70378 3.51344 8.69633 3.51341 8.68865C3.51331 8.66378 3.51334 8.63891 3.51336 8.61404C3.51332 8.59599 3.51327 8.57794 3.51321 8.55989C3.51307 8.51036 3.51304 8.46084 3.51303 8.41131C3.513 8.35788 3.51286 8.30445 3.51274 8.25101C3.51255 8.15846 3.51241 8.0659 3.51233 7.97335C3.51223 7.8763 3.5121 7.77924 3.51193 7.68219C3.51192 7.67615 3.51191 7.67011 3.51189 7.66389C3.51184 7.63323 3.51178 7.60256 3.51173 7.57189C3.51132 7.35478 3.511 7.13767 3.51073 6.92056C3.51047 6.70966 3.51016 6.49876 3.50981 6.28786C3.5098 6.28135 3.50979 6.27485 3.50978 6.26815C3.50967 6.20285 3.50956 6.13754 3.50945 6.07224C3.50923 5.93921 3.50901 5.80618 3.50879 5.67315C3.50878 5.66704 3.50877 5.66092 3.50876 5.65462C3.5081 5.24631 3.50755 4.83799 3.50702 4.42968C3.16383 4.42968 2.66183 4.86502 2.42188 5.08607ZM11.3006 5.42068C11.2916 5.42594 11.2826 5.43121 11.2734 5.43664C11.2637 5.44242 11.2541 5.4482 11.2441 5.45415C11.2339 5.46017 11.2237 5.46618 11.2135 5.47217C11.1923 5.48464 11.1711 5.49716 11.1499 5.5097C11.1015 5.53829 11.0528 5.56623 11.0041 5.59423C10.985 5.60521 10.966 5.6162 10.947 5.62718C10.6613 5.79198 10.6613 5.79198 10.3757 5.95677C10.3662 5.96222 10.3568 5.96766 10.3471 5.97327C10.3281 5.98421 10.3091 5.99515 10.2902 6.0061C10.2415 6.0342 10.1928 6.06231 10.1441 6.09046C10.0414 6.14979 9.93869 6.20887 9.83515 6.26659C9.85624 6.28993 9.87878 6.30421 9.90604 6.31974C9.91509 6.32492 9.92414 6.3301 9.93346 6.33544C9.94325 6.341 9.95305 6.34656 9.96314 6.35228C9.97343 6.35817 9.98373 6.36405 9.99402 6.36995C10.0154 6.38219 10.0368 6.39441 10.0582 6.40661C10.107 6.43446 10.1556 6.4626 10.2043 6.49071C10.2233 6.5017 10.2424 6.51268 10.2614 6.52367C10.6042 6.72142 10.947 6.91918 11.2897 7.11693C11.2992 7.12237 11.3086 7.12781 11.3183 7.13341C11.3373 7.14439 11.3564 7.15537 11.3754 7.16635C11.4232 7.19394 11.471 7.22152 11.5189 7.24908C11.6198 7.30723 11.7206 7.36563 11.8212 7.4244C11.914 7.47859 12.0071 7.53226 12.1002 7.58591C12.148 7.6134 12.1957 7.64092 12.2434 7.66844C12.2624 7.67943 12.2814 7.69042 12.3005 7.7014C13.0432 8.12987 13.0432 8.12987 13.7858 8.55834C13.7953 8.56378 13.8047 8.56922 13.8144 8.57483C13.8334 8.58577 13.8523 8.59671 13.8713 8.60766C13.9202 8.63594 13.9692 8.66408 14.0184 8.69203C14.3475 8.87957 14.3475 8.87957 14.4269 9.0346C14.4297 9.04004 14.4325 9.04548 14.4354 9.05109C14.4877 9.16074 14.4884 9.27034 14.4881 9.38911C14.4881 9.40718 14.4882 9.42525 14.4882 9.44333C14.4884 9.49279 14.4884 9.54226 14.4884 9.59172C14.4884 9.64514 14.4885 9.69855 14.4886 9.75197C14.4888 9.84445 14.4889 9.93693 14.489 10.0294C14.489 10.1264 14.4891 10.2233 14.4893 10.3203C14.4893 10.3293 14.4893 10.3293 14.4893 10.3386C14.4894 10.3692 14.4894 10.3999 14.4895 10.4306C14.4899 10.6475 14.4901 10.8645 14.4903 11.0814C14.4905 11.2921 14.4907 11.5028 14.491 11.7136C14.4911 11.7233 14.4911 11.7233 14.4911 11.7333C14.4912 11.7985 14.4913 11.8638 14.4914 11.9291C14.4916 12.062 14.4918 12.195 14.492 12.3279C14.492 12.3341 14.492 12.3402 14.492 12.3465C14.4926 12.7544 14.493 13.1624 14.4934 13.5703C14.5282 13.5565 14.5631 13.5426 14.5979 13.5287C14.6077 13.5248 14.6175 13.521 14.6275 13.517C14.9305 13.3962 15.209 13.2243 15.4601 13.0166C15.4688 13.0095 15.4774 13.0024 15.4863 12.9951C15.6071 12.8948 15.7267 12.7879 15.8288 12.6684C15.843 12.652 15.8573 12.6358 15.8718 12.6196C16.0176 12.4558 16.1412 12.2744 16.2512 12.0849C16.2546 12.0791 16.258 12.0732 16.2616 12.0672C16.6799 11.3502 16.7923 10.4819 16.5851 9.53612C16.48 9.13779 16.2967 8.74981 16.049 8.41991C16.0452 8.41483 16.0415 8.40974 16.0376 8.4045C15.9334 8.26466 15.8178 8.13431 15.6946 8.0111C15.681 7.99751 15.6675 7.98386 15.654 7.97021C15.5981 7.91398 15.5398 7.86288 15.4777 7.81346C15.4671 7.80446 15.4564 7.79542 15.4459 7.78631C15.2839 7.64863 15.0999 7.53785 14.9156 7.43315C14.8784 7.41201 14.8414 7.39059 14.8044 7.36919C14.7757 7.35256 14.7469 7.33597 14.7181 7.31939C14.6607 7.28635 14.6034 7.25328 14.5461 7.2202C14.527 7.20922 14.508 7.19823 14.489 7.18724C14.4509 7.16527 14.4128 7.1433 14.3747 7.12133C14.3653 7.11589 14.3558 7.11045 14.3461 7.10484C14.3271 7.09387 14.3081 7.08289 14.289 7.07191C14.2412 7.04432 14.1934 7.01674 14.1456 6.98918C14.0537 6.93625 13.9619 6.88317 13.8704 6.82964C13.7942 6.78503 13.7176 6.741 13.6408 6.69725C13.5554 6.64856 13.4702 6.5994 13.3853 6.54974C13.2928 6.49565 13.2 6.44216 13.1072 6.38868C13.0594 6.36119 13.0118 6.33366 12.9641 6.30614C12.945 6.29515 12.926 6.28417 12.9069 6.27318C12.3928 5.97655 12.3928 5.97655 11.8786 5.67992C11.8692 5.67447 11.8597 5.66903 11.85 5.66342C11.8311 5.6525 11.8121 5.64158 11.7932 5.63065C11.7491 5.60518 11.7049 5.57972 11.6608 5.5543C11.6453 5.54536 11.6297 5.53642 11.6142 5.52748C11.5948 5.51632 11.5754 5.50516 11.5561 5.49401C11.5472 5.48891 11.5384 5.48381 11.5292 5.47856C11.5165 5.47125 11.5165 5.47125 11.5035 5.46379C11.4869 5.45403 11.4704 5.44399 11.4542 5.43369C11.4465 5.42885 11.4388 5.42401 11.4309 5.41903C11.4209 5.41251 11.4209 5.41251 11.4106 5.40586C11.3676 5.38548 11.3397 5.39745 11.3006 5.42068ZM8.92438 6.79503C8.91741 6.79894 8.91043 6.80284 8.90325 6.80687C8.82764 6.84943 8.75281 6.89332 8.67794 6.93717C8.62179 6.97003 8.56547 7.0026 8.5091 7.03508C8.49486 7.04329 8.49486 7.04329 8.48034 7.05165C8.46109 7.06275 8.44184 7.07384 8.42259 7.08493C8.37488 7.11242 8.32718 7.13995 8.27948 7.16747C8.26044 7.17845 8.2414 7.18944 8.22235 7.20043C8.21293 7.20587 8.2035 7.2113 8.19379 7.21691C7.65107 7.53002 7.65107 7.53002 7.62249 7.5465C7.60348 7.55747 7.58446 7.56844 7.56545 7.57942C7.51742 7.60713 7.46938 7.63482 7.42131 7.66247C7.41158 7.66807 7.40185 7.67368 7.39182 7.67945C7.37381 7.68981 7.3558 7.70017 7.33778 7.71052C7.32045 7.7205 7.30324 7.73071 7.28615 7.74112C7.25948 7.75679 7.23218 7.76921 7.20381 7.78153C7.11126 7.82292 7.11126 7.82292 7.04645 7.89706C7.02818 7.96091 7.03127 8.02676 7.03251 8.09255C7.03221 8.11453 7.03184 8.13652 7.03139 8.1585C7.03054 8.21182 7.03058 8.26507 7.03109 8.31838C7.03148 8.36174 7.03149 8.40509 7.03125 8.44845C7.03119 8.45774 7.03119 8.45774 7.03114 8.46721C7.03107 8.4798 7.03099 8.49239 7.03092 8.50497C7.03028 8.62274 7.03083 8.74048 7.03179 8.85825C7.03259 8.95908 7.03231 9.05985 7.03127 9.16068C7.03006 9.27804 7.02954 9.39537 7.03009 9.51273C7.03015 9.52527 7.03021 9.53781 7.03026 9.55035C7.0303 9.5596 7.0303 9.55961 7.03034 9.56904C7.03049 9.6123 7.03014 9.65553 7.02959 9.69878C7.02887 9.75713 7.02927 9.81541 7.03041 9.87376C7.03066 9.89509 7.03055 9.91643 7.03006 9.93776C7.02749 10.0346 7.02749 10.0346 7.0578 10.125C7.11062 10.1769 7.17724 10.2076 7.24434 10.2371C7.27486 10.2508 7.30274 10.2669 7.33129 10.2843C7.34816 10.294 7.36503 10.3037 7.3819 10.3134C7.4011 10.3245 7.42031 10.3355 7.43951 10.3466C7.44905 10.3521 7.45858 10.3576 7.46841 10.3632C7.51612 10.3907 7.56382 10.4183 7.61151 10.4458C7.63056 10.4568 7.6496 10.4678 7.66864 10.4787C8.46845 10.9402 8.46845 10.9402 8.49704 10.9567C8.516 10.9676 8.53495 10.9785 8.55391 10.9895C8.61292 11.0235 8.67193 11.0576 8.73093 11.0917C8.7505 11.1029 8.77009 11.1142 8.78969 11.1254C8.82949 11.1483 8.86918 11.1712 8.90818 11.1954C8.91384 11.1989 8.91951 11.2023 8.92535 11.2059C8.93944 11.2145 8.95341 11.2233 8.96737 11.2322C8.99959 11.2443 9.01252 11.2361 9.04413 11.2236C9.06007 11.2154 9.07577 11.2068 9.09124 11.1977C9.1002 11.1925 9.10916 11.1873 9.11839 11.1819C9.12797 11.1763 9.13754 11.1706 9.1474 11.1648C9.15757 11.1589 9.16775 11.153 9.17792 11.1471C9.19905 11.1348 9.22015 11.1224 9.24125 11.1101C9.28968 11.0818 9.3383 11.0539 9.3869 11.0259C9.40593 11.0149 9.42495 11.0039 9.44396 10.9929C9.48227 10.9708 9.52059 10.9488 9.55891 10.9267C9.65077 10.8738 9.74254 10.8207 9.83405 10.7671C9.91553 10.7195 9.99739 10.6725 10.0794 10.6258C10.1506 10.5852 10.2215 10.5443 10.2922 10.5029C10.3681 10.4585 10.4443 10.4146 10.5207 10.3711C10.6004 10.3257 10.6799 10.28 10.7591 10.2338C10.7675 10.2289 10.7758 10.224 10.7845 10.219C10.8079 10.2053 10.8313 10.1915 10.8547 10.1777C10.8617 10.1745 10.8687 10.1713 10.876 10.1679C10.9222 10.1457 10.9222 10.1457 10.9509 10.1055C10.9541 10.0812 10.9546 10.0583 10.9541 10.0338C10.9544 10.0201 10.9544 10.0201 10.9547 10.006C10.9552 9.97529 10.9551 9.94459 10.9549 9.91385C10.9551 9.89182 10.9554 9.86979 10.9557 9.84776C10.9563 9.79412 10.9565 9.74049 10.9564 9.68685C10.9564 9.64323 10.9565 9.59961 10.9567 9.556C10.9574 9.41876 10.9576 9.28154 10.9574 9.1443C10.9572 9.03614 10.9579 8.92801 10.9589 8.81985C10.9599 8.70871 10.9603 8.59758 10.9602 8.48644C10.9601 8.42407 10.9603 8.36172 10.9611 8.29936C10.9618 8.24068 10.9617 8.18205 10.9611 8.12337C10.961 8.10186 10.9611 8.08035 10.9616 8.05885C10.9678 7.95218 10.9678 7.95218 10.9279 7.85792C10.8925 7.82908 10.8538 7.81084 10.8114 7.79451C10.7847 7.78367 10.7612 7.76932 10.7366 7.75431C10.719 7.74417 10.7014 7.73405 10.6838 7.72393C10.6641 7.71254 10.6443 7.70115 10.6245 7.68976C10.6146 7.68405 10.6047 7.67834 10.5945 7.67245C10.5464 7.64477 10.4984 7.61706 10.4504 7.58934C10.4313 7.57836 10.4123 7.56737 10.3933 7.55638C10.2028 7.44652 10.0124 7.33666 9.82196 7.22679C9.81254 7.22136 9.80311 7.21592 9.7934 7.21031C9.77437 7.19933 9.75534 7.18835 9.73631 7.17737C9.68849 7.14978 9.64067 7.12221 9.59283 7.09465C9.50885 7.04626 9.42492 6.99782 9.34127 6.94886C9.26041 6.90155 9.17938 6.85456 9.09797 6.80822C9.08494 6.80075 9.08494 6.80075 9.07166 6.79314C9.06369 6.78862 9.05571 6.7841 9.0475 6.77944C9.03695 6.77344 9.03695 6.77344 9.02618 6.76731C8.98752 6.74813 8.95835 6.77585 8.92438 6.79503ZM11.7775 8.35839C11.7775 8.37446 11.7775 8.37446 11.7775 8.39085C11.7771 8.8632 11.7767 9.33555 11.7761 9.8079C11.7761 9.81506 11.7761 9.82221 11.7761 9.82958C11.7759 9.98508 11.7757 10.1406 11.7755 10.2961C11.7754 10.3723 11.7753 10.4486 11.7752 10.5249C11.7752 10.5324 11.7752 10.54 11.7752 10.5479C11.7749 10.7937 11.7747 11.0395 11.7745 11.2854C11.7743 11.5381 11.774 11.7907 11.7736 12.0434C11.7736 12.0792 11.7735 12.1149 11.7735 12.1506C11.7734 12.1576 11.7734 12.1646 11.7734 12.1719C11.7733 12.2849 11.7732 12.3979 11.7731 12.5109C11.7731 12.6246 11.773 12.7383 11.7727 12.852C11.7726 12.9195 11.7725 12.987 11.7726 13.0545C11.7726 13.105 11.7725 13.1555 11.7723 13.206C11.7723 13.2264 11.7723 13.2467 11.7723 13.2671C11.7727 13.4753 11.7501 13.6611 11.6023 13.8213C11.494 13.9235 11.3477 13.9885 11.219 14.0616C11.1641 14.0928 11.1093 14.1243 11.0546 14.1559C11.0452 14.1613 11.0358 14.1667 11.0262 14.1723C10.9543 14.2138 10.8827 14.2556 10.811 14.2974C10.7182 14.3516 10.6251 14.4053 10.532 14.459C10.4842 14.4864 10.4366 14.514 10.3889 14.5415C10.3698 14.5525 10.3508 14.5635 10.3317 14.5745C10.3176 14.5826 10.3176 14.5826 10.3032 14.5909C9.30341 15.1677 9.30341 15.1677 9.27484 15.1842C9.25581 15.1952 9.23678 15.2062 9.21775 15.2171C9.16994 15.2447 9.12211 15.2723 9.07428 15.2999C8.98206 15.353 8.88993 15.4063 8.79804 15.4599C8.69655 15.5192 8.59476 15.578 8.4929 15.6367C8.44519 15.6642 8.39749 15.6917 8.3498 15.7192C8.33081 15.7302 8.31182 15.7411 8.29284 15.7521C8.25417 15.7744 8.21552 15.7967 8.17686 15.819C8.1672 15.8246 8.15753 15.8302 8.14756 15.8359C8.1284 15.847 8.10923 15.8581 8.09007 15.8692C8.04435 15.8956 7.99855 15.9218 7.95257 15.9478C7.93978 15.955 7.93978 15.955 7.92673 15.9624C7.91076 15.9714 7.89477 15.9804 7.87876 15.9893C7.86817 15.9953 7.86817 15.9953 7.85737 16.0014C7.85123 16.0049 7.84509 16.0083 7.83876 16.0119C7.82217 16.0226 7.80949 16.0343 7.79608 16.0488C8.37607 16.5286 9.10135 16.7979 9.85273 16.8223C9.85904 16.8225 9.86536 16.8227 9.87186 16.8229C10.3902 16.8369 10.915 16.72 11.382 16.4971C11.3895 16.4936 11.397 16.4901 11.4047 16.4864C11.589 16.4001 11.7639 16.2935 11.9269 16.1719C11.9321 16.1681 11.9372 16.1643 11.9424 16.1604C12.0865 16.0531 12.2189 15.9331 12.3464 15.8067C12.3589 15.7943 12.3714 15.782 12.3839 15.7696C12.4376 15.716 12.4862 15.6599 12.5334 15.6006C12.5429 15.5891 12.5525 15.5777 12.5621 15.5662C12.9397 15.1134 13.1826 14.5442 13.2739 13.9636C13.2752 13.9552 13.2765 13.9468 13.2779 13.9382C13.301 13.7818 13.3095 13.6257 13.3095 13.4678C13.3095 13.4495 13.3096 13.4311 13.3097 13.4128C13.3099 13.363 13.31 13.3133 13.31 13.2635C13.3101 13.2096 13.3103 13.1557 13.3105 13.1018C13.3108 12.9782 13.3111 12.8547 13.3112 12.7311C13.3113 12.6883 13.3114 12.6455 13.3114 12.6028C13.3118 12.3749 13.3122 12.1471 13.3124 11.9192C13.3124 11.8666 13.3125 11.814 13.3125 11.7614C13.3125 11.7516 13.3125 11.7516 13.3125 11.7416C13.3127 11.5293 13.3132 11.317 13.3138 11.1046C13.3145 10.886 13.3149 10.6674 13.315 10.4488C13.315 10.4179 13.315 10.3871 13.315 10.3562C13.315 10.3501 13.315 10.3441 13.315 10.3378C13.3151 10.2401 13.3154 10.1424 13.3158 10.0447C13.3162 9.94664 13.3163 9.84859 13.3161 9.75052C13.3161 9.6974 13.3161 9.64428 13.3165 9.59115C13.3168 9.54256 13.3168 9.49398 13.3165 9.44538C13.3165 9.42777 13.3166 9.41016 13.3168 9.39256C13.3218 9.3033 13.3218 9.3033 13.2895 9.22436C13.2691 9.21049 13.2508 9.20166 13.2277 9.19335C13.219 9.18807 13.2103 9.18279 13.2014 9.17735C13.1898 9.17074 13.1898 9.17074 13.178 9.16399C13.1647 9.15635 13.1647 9.15635 13.1511 9.14854C13.1418 9.14321 13.1324 9.13787 13.1228 9.13237C13.1076 9.12365 13.0924 9.11493 13.0772 9.1062C13.0615 9.09721 13.0459 9.08824 13.0302 9.07927C12.9817 9.05149 12.9333 9.02353 12.885 8.99559C12.8659 8.98461 12.8469 8.97362 12.8278 8.96263C12.2565 8.63304 12.2565 8.63304 12.2279 8.61654C12.209 8.60563 12.1901 8.59471 12.1712 8.5838C12.1269 8.55828 12.0827 8.53275 12.0385 8.5072C12.0229 8.49819 12.0073 8.48918 11.9917 8.48018C11.9722 8.46891 11.9527 8.45764 11.9332 8.44636C11.9243 8.44124 11.9155 8.43611 11.9063 8.43083C11.8948 8.42415 11.8948 8.42415 11.883 8.41733C11.8605 8.40455 11.838 8.39195 11.8154 8.37942C11.8048 8.37351 11.8048 8.37351 11.7939 8.36747C11.7885 8.36447 11.7831 8.36147 11.7775 8.35839ZM10.8775 11.1179C10.8627 11.1264 10.8627 11.1264 10.8476 11.1351C10.8368 11.1413 10.8259 11.1476 10.8151 11.1539C10.804 11.1603 10.7928 11.1667 10.7816 11.1731C10.7529 11.1897 10.7242 11.2062 10.6955 11.2228C10.6702 11.2374 10.645 11.2519 10.6198 11.2665C10.5727 11.2936 10.5257 11.3207 10.4787 11.3479C10.4312 11.3753 10.3836 11.4028 10.3361 11.4302C10.3171 11.4411 10.298 11.4521 10.279 11.4631C9.93622 11.6609 9.93622 11.6609 9.90765 11.6774C9.88862 11.6883 9.8696 11.6993 9.85057 11.7103C9.80275 11.7379 9.75493 11.7655 9.70709 11.793C9.61487 11.8462 9.52274 11.8994 9.43085 11.9531C9.32936 12.0124 9.22757 12.0712 9.12571 12.1299C9.078 12.1573 9.0303 12.1849 8.98261 12.2124C8.96357 12.2234 8.94452 12.2344 8.92548 12.2453C8.91605 12.2508 8.90663 12.2562 8.89692 12.2618C7.44013 13.1023 7.44013 13.1023 7.41156 13.1188C7.39253 13.1297 7.3735 13.1407 7.35447 13.1517C7.30666 13.1793 7.25883 13.2069 7.21099 13.2344C7.11913 13.2874 7.02737 13.3404 6.93586 13.394C6.86232 13.4369 6.78863 13.4796 6.71474 13.522C6.70413 13.5281 6.69352 13.5342 6.68292 13.5403C6.50427 13.6431 6.33786 13.7117 6.12946 13.6626C6.0173 13.6285 5.91722 13.5676 5.81721 13.5077C5.76689 13.4777 5.71608 13.4485 5.66529 13.4192C5.6507 13.4108 5.6507 13.4108 5.63582 13.4023C5.61585 13.3908 5.59589 13.3793 5.57592 13.3678C5.52788 13.3401 5.47985 13.3124 5.43183 13.2847C5.41278 13.2737 5.39374 13.2627 5.3747 13.2517C5.33661 13.2297 5.29853 13.2078 5.26044 13.1858C5.25101 13.1803 5.24159 13.1749 5.23187 13.1693C5.21284 13.1583 5.19381 13.1473 5.17479 13.1364C5.12697 13.1088 5.07914 13.0812 5.03131 13.0536C4.93037 12.9955 4.82958 12.9371 4.729 12.8783C4.63619 12.8241 4.54307 12.7705 4.44993 12.7168C4.40222 12.6893 4.35452 12.6618 4.30683 12.6343C4.28778 12.6233 4.26874 12.6123 4.2497 12.6013C3.83075 12.3596 3.41181 12.1179 2.99286 11.8762C2.98343 11.8708 2.97401 11.8653 2.96429 11.8597C2.94526 11.8487 2.92624 11.8378 2.90721 11.8268C2.85939 11.7992 2.81157 11.7716 2.76373 11.7441C2.66825 11.6891 2.57284 11.6339 2.4776 11.5785C2.46901 11.5735 2.46043 11.5685 2.45158 11.5634C2.40892 11.5385 2.36677 11.5132 2.32545 11.4861C2.31177 11.4771 2.31177 11.4771 2.29413 11.4785C2.18431 12.1469 2.26744 12.8414 2.5578 13.456C2.562 13.465 2.5662 13.474 2.57053 13.4832C2.70746 13.7731 2.88352 14.0427 3.10101 14.2786C3.11718 14.2964 3.13287 14.3143 3.14853 14.3325C3.18371 14.3728 3.2209 14.4109 3.25873 14.4487C3.26569 14.4556 3.27265 14.4626 3.27983 14.4698C3.32348 14.513 3.3677 14.5534 3.41615 14.5912C3.43568 14.6066 3.45369 14.6228 3.47187 14.6398C3.94983 15.069 4.59456 15.2999 5.22089 15.3896C5.23317 15.3914 5.23317 15.3914 5.2457 15.3932C5.52036 15.4303 5.81725 15.4208 6.09101 15.3808C6.10111 15.3794 6.11121 15.3779 6.12162 15.3764C6.60119 15.3043 7.0366 15.1222 7.45129 14.877C7.50501 14.8452 7.55915 14.8142 7.61338 14.7833C7.70409 14.7317 7.79448 14.6796 7.88456 14.6269C7.97706 14.5728 8.0699 14.5193 8.16275 14.4658C8.21046 14.4383 8.25815 14.4108 8.30585 14.3833C8.32489 14.3723 8.34394 14.3613 8.36298 14.3503C8.37241 14.3449 8.38183 14.3395 8.39154 14.3339C9.61981 13.6252 9.61981 13.6252 9.64838 13.6088C9.66741 13.5978 9.68644 13.5868 9.70547 13.5758C9.75329 13.5482 9.80111 13.5206 9.84895 13.4931C9.94081 13.4402 10.0326 13.3871 10.1241 13.3335C10.2056 13.2859 10.2874 13.2389 10.3694 13.1922C10.4495 13.1466 10.5292 13.1005 10.6087 13.0539C10.6559 13.0263 10.7032 12.9989 10.7507 12.9718C10.7613 12.9657 10.7718 12.9596 10.7824 12.9536C10.8027 12.942 10.823 12.9304 10.8434 12.9189C10.8525 12.9137 10.8616 12.9084 10.8711 12.9031C10.8791 12.8985 10.8872 12.8938 10.8956 12.8891C10.9222 12.8726 10.9222 12.8726 10.9426 12.8496C10.9451 12.8256 10.946 12.8037 10.9457 12.7797C10.9458 12.7725 10.9458 12.7653 10.9458 12.7579C10.9459 12.7337 10.9457 12.7095 10.9456 12.6852C10.9456 12.6679 10.9456 12.6506 10.9456 12.6333C10.9456 12.5862 10.9454 12.5391 10.9452 12.492C10.9451 12.4428 10.9451 12.3936 10.945 12.3444C10.9449 12.2512 10.9447 12.158 10.9445 12.0648C10.9442 11.9587 10.944 11.8526 10.9439 11.7465C10.9436 11.5283 10.9432 11.31 10.9426 11.0918C10.9162 11.0918 10.9002 11.1048 10.8775 11.1179Z" fill="#82025A"/>
</g>
<defs>
<clipPath id="clip0_200_90">
<rect width="18" height="18" fill="white"/>
</clipPath>
</defs>
</svg>
