<svg width="25" height="25" viewBox="0 0 25 25" fill="none" xmlns="http://www.w3.org/2000/svg">
<path d="M13.9174 7.01154C14.1935 7.01154 14.4174 6.78768 14.4174 6.51154C14.4174 6.23539 14.1935 6.01154 13.9174 6.01154C13.6412 6.01154 13.4174 6.23539 13.4174 6.51154C13.4174 6.78768 13.6412 7.01154 13.9174 7.01154Z" fill="#1FA594"/>
<path d="M17.9174 11.0115C18.1935 11.0115 18.4174 10.7877 18.4174 10.5115C18.4174 10.2354 18.1935 10.0115 17.9174 10.0115C17.6412 10.0115 17.4174 10.2354 17.4174 10.5115C17.4174 10.7877 17.6412 11.0115 17.9174 11.0115Z" fill="#1FA594"/>
<path d="M8.91736 8.01154C9.1935 8.01154 9.41736 7.78768 9.41736 7.51154C9.41736 7.23539 9.1935 7.01154 8.91736 7.01154C8.64122 7.01154 8.41736 7.23539 8.41736 7.51154C8.41736 7.78768 8.64122 8.01154 8.91736 8.01154Z" fill="#1FA594"/>
<path d="M6.91736 13.0115C7.1935 13.0115 7.41736 12.7877 7.41736 12.5115C7.41736 12.2354 7.1935 12.0115 6.91736 12.0115C6.64122 12.0115 6.41736 12.2354 6.41736 12.5115C6.41736 12.7877 6.64122 13.0115 6.91736 13.0115Z" fill="#1FA594"/>
<path d="M13.9174 7.01154C14.1935 7.01154 14.4174 6.78768 14.4174 6.51154C14.4174 6.23539 14.1935 6.01154 13.9174 6.01154C13.6412 6.01154 13.4174 6.23539 13.4174 6.51154C13.4174 6.78768 13.6412 7.01154 13.9174 7.01154Z" stroke="#1FA594" stroke-width="1.5" stroke-linecap="round" stroke-linejoin="round"/>
<path d="M17.9174 11.0115C18.1935 11.0115 18.4174 10.7877 18.4174 10.5115C18.4174 10.2354 18.1935 10.0115 17.9174 10.0115C17.6412 10.0115 17.4174 10.2354 17.4174 10.5115C17.4174 10.7877 17.6412 11.0115 17.9174 11.0115Z" stroke="#1FA594" stroke-width="1.5" stroke-linecap="round" stroke-linejoin="round"/>
<path d="M8.91736 8.01154C9.1935 8.01154 9.41736 7.78768 9.41736 7.51154C9.41736 7.23539 9.1935 7.01154 8.91736 7.01154C8.64122 7.01154 8.41736 7.23539 8.41736 7.51154C8.41736 7.78768 8.64122 8.01154 8.91736 8.01154Z" stroke="#1FA594" stroke-width="1.5" stroke-linecap="round" stroke-linejoin="round"/>
<path d="M6.91736 13.0115C7.1935 13.0115 7.41736 12.7877 7.41736 12.5115C7.41736 12.2354 7.1935 12.0115 6.91736 12.0115C6.64122 12.0115 6.41736 12.2354 6.41736 12.5115C6.41736 12.7877 6.64122 13.0115 6.91736 13.0115Z" stroke="#1FA594" stroke-width="1.5" stroke-linecap="round" stroke-linejoin="round"/>
<path d="M12.4174 2.01154C6.91736 2.01154 2.41736 6.51154 2.41736 12.0115C2.41736 17.5115 6.91736 22.0115 12.4174 22.0115C13.3434 22.0115 14.0654 21.2655 14.0654 20.3235C14.0654 19.8865 13.8854 19.4885 13.6284 19.1985C13.3384 18.9095 13.1904 18.5465 13.1904 18.0735C13.1866 17.8534 13.2271 17.6348 13.3096 17.4308C13.3921 17.2267 13.5148 17.0413 13.6705 16.8856C13.8261 16.73 14.0115 16.6073 14.2156 16.5248C14.4197 16.4423 14.6383 16.4017 14.8584 16.4055H16.8544C19.9054 16.4055 22.4094 13.9025 22.4094 10.8515C22.3824 6.02354 17.8784 2.01154 12.4174 2.01154Z" stroke="#1FA594" stroke-width="1.5" stroke-linecap="round" stroke-linejoin="round"/>
</svg>
